<svg xmlns="http://www.w3.org/2000/svg" xmlns:xlink="http://www.w3.org/1999/xlink" version="1.1" x="0px" y="0px" viewBox="0 0 100 100" style="enable-background:new 0 0 100 100;" xml:space="preserve"><g><path d="M33,8c-8.8,0-16,7.2-16,16v52c0,8.8,7.2,16,16,16h34c8.8,0,16-7.2,16-16V24c0-8.8-7.2-16-16-16H33z M79,24v52   c0,6.6-5.4,12-12,12H33c-6.6,0-12-5.4-12-12V24c0-6.6,5.4-12,12-12h34C73.6,12,79,17.4,79,24z"></path><rect x="40" y="63" width="20" height="4"></rect><rect x="32" y="74" width="36" height="4"></rect><path d="M56.9,20.8c-2.5,0-4.9,0.8-6.9,2.3c-2-1.5-4.4-2.3-6.9-2.3c-3.1,0-6,1.2-8.2,3.4c-2.2,2.2-3.4,5.1-3.4,8.2s1.2,6,3.4,8.2   l13.7,13.7c0.4,0.4,0.9,0.6,1.4,0.6s1-0.2,1.4-0.6l13.7-13.7c2.2-2.2,3.4-5.1,3.4-8.2c0-3.1-1.2-6-3.4-8.2   C62.9,22,60,20.8,56.9,20.8z M62.3,37.6L50,49.9L37.7,37.6c-1.4-1.4-2.2-3.3-2.2-5.3c0-2,0.8-3.9,2.2-5.3c1.4-1.4,3.3-2.2,5.3-2.2   s3.9,0.8,5.3,2.2l0.2,0.2c0.8,0.8,2,0.8,2.8,0l0.2-0.2c1.4-1.4,3.3-2.2,5.3-2.2s3.9,0.8,5.3,2.2c1.4,1.4,2.2,3.3,2.2,5.3   C64.5,34.3,63.7,36.2,62.3,37.6z"></path></g></svg>