<?xml version="1.0" standalone="no"?>
<!DOCTYPE svg PUBLIC "-//W3C//DTD SVG 1.1//EN" "http://www.w3.org/Graphics/SVG/1.1/DTD/svg11.dtd">
<svg xmlns="http://www.w3.org/2000/svg" viewBox="0 0 24 25" fill="none" x="0px" y="0px" width="24" height="25"><path fill-rule="evenodd" clip-rule="evenodd" d="M7.56053 5.53993C6.46204 6.55971 5.75 8.08476 5.75 10.1218C5.75 11.0551 6.12364 12.175 6.7574 13.3787C7.38431 14.5695 8.22914 15.7745 9.0882 16.8605C9.94525 17.9439 10.8043 18.8935 11.4499 19.5729C11.6584 19.7923 11.8442 19.9831 12 20.1406C12.1558 19.9831 12.3416 19.7923 12.5501 19.5729C13.1957 18.8935 14.0547 17.9439 14.9118 16.8605C15.7709 15.7745 16.6157 14.5695 17.2426 13.3787C17.8764 12.175 18.25 11.0551 18.25 10.1218C18.25 8.08476 17.538 6.55971 16.4395 5.53993C15.3327 4.51246 13.7749 3.94421 12 3.94421C10.2251 3.94421 8.66729 4.51246 7.56053 5.53993ZM12 21.1942C11.4845 21.7389 11.4843 21.7388 11.4842 21.7387L11.4779 21.7327L11.4615 21.717L11.3999 21.6577C11.3465 21.6061 11.2691 21.5306 11.1711 21.4334C10.9751 21.239 10.6964 20.9575 10.3626 20.6062C9.69573 19.9045 8.80475 18.9199 7.9118 17.7911C7.02086 16.6649 6.11569 15.3798 5.4301 14.0775C4.75136 12.7883 4.25 11.4122 4.25 10.1218C4.25 7.71158 5.10496 5.77282 6.53998 4.44062C7.96672 3.11611 9.90889 2.44421 12 2.44421C14.0911 2.44421 16.0333 3.11611 17.46 4.44062C18.895 5.77282 19.75 7.71158 19.75 10.1218C19.75 11.4122 19.2486 12.7883 18.5699 14.0775C17.8843 15.3798 16.9791 16.6649 16.0882 17.7911C15.1953 18.9199 14.3043 19.9045 13.6374 20.6062C13.3036 20.9575 13.0249 21.239 12.8289 21.4334C12.7309 21.5306 12.6535 21.6061 12.6001 21.6577L12.5385 21.717L12.5221 21.7327L12.5162 21.7383C12.5161 21.7384 12.5155 21.7389 12 21.1942ZM12 21.1942L12.5162 21.7383C12.227 22.012 11.7734 22.0124 11.4842 21.7387L12 21.1942Z" fill="black"/><path fill-rule="evenodd" clip-rule="evenodd" d="M12 7.94421C10.7574 7.94421 9.75 8.95157 9.75 10.1942C9.75 11.4369 10.7574 12.4442 12 12.4442C13.2426 12.4442 14.25 11.4369 14.25 10.1942C14.25 8.95157 13.2426 7.94421 12 7.94421ZM8.25 10.1942C8.25 8.12315 9.92893 6.44421 12 6.44421C14.0711 6.44421 15.75 8.12315 15.75 10.1942C15.75 12.2653 14.0711 13.9442 12 13.9442C9.92893 13.9442 8.25 12.2653 8.25 10.1942Z" fill="black"/></svg>