<?xml version="1.0" encoding="UTF-8"?>
<svg width="1200pt" height="1200pt" version="1.1" viewBox="0 0 1200 1200" xmlns="http://www.w3.org/2000/svg">
 <g>
  <path d="m60 0h1080c33.137 0 60 33.137 60 60v1080c0 33.137-26.863 60-60 60h-1080c-33.137 0-60-33.137-60-60v-1080c0-33.137 26.863-60 60-60z" fill="#ffdeb8"/>
  <path d="m600 322.2 212.58 52.898 0.003907 170.72c-0.003907 39.691-8.457 78.926-24.797 115.1-16.336 36.172-40.191 68.449-69.973 94.688l-117.82 103.91-117.81-103.91c-29.781-26.238-53.637-58.516-69.977-94.688-16.34-36.172-24.789-75.406-24.793-115.1v-170.64l212.58-52.898m0-62.348-273.04 68.016v217.87c0.003906 48.27 10.281 95.984 30.152 139.97 19.871 43.992 48.879 83.246 85.094 115.16l157.79 139.13 157.79-139.13c36.219-31.91 65.227-71.164 85.098-115.16 19.867-43.988 30.148-91.703 30.152-139.97v-217.87z"/>
  <path d="m681.77 527.07-63.102 76.176h63.102l-163.54 151.9 60.457-114.04h-60.457l60.457-74.137h-60.457l163.54-151.9-61.062 112z"/>
 </g>
</svg>
