<svg xmlns="http://www.w3.org/2000/svg" xmlns:xlink="http://www.w3.org/1999/xlink" version="1.1" x="0px" y="0px" viewBox="0 0 90 90" enable-background="new 0 0 90 90" xml:space="preserve"><path d="M74.8,30.4V18.8c0,0-19.9-1.2-29.8-10.9c-9.8,9.7-29.8,10.9-29.8,10.9v11.6c0,0-1.6,36.6,29.8,51.7  C76.4,67,74.8,30.4,74.8,30.4z M61.3,37.5l-17.1,21c-1.2,1.4-2.9,2.2-4.7,2.2c-0.2,0-0.5,0-0.7,0c-2.1-0.3-3.8-1.5-4.7-3.4l-6-12.6  c-1.2-2.5-0.1-5.5,2.4-6.7c2.5-1.2,5.5-0.1,6.7,2.4l3.3,7l13.2-16.2c1.7-2.1,4.9-2.5,7-0.7C62.7,32.2,63.1,35.3,61.3,37.5z"></path></svg>