<?xml version="1.0" encoding="UTF-8"?>
<svg width="1200pt" height="1200pt" version="1.1" viewBox="0 0 1200 1200" xmlns="http://www.w3.org/2000/svg">
 <g>
  <path d="m60 0h1080c33.137 0 60 33.137 60 60v1080c0 33.137-26.863 60-60 60h-1080c-33.137 0-60-33.137-60-60v-1080c0-33.137 26.863-60 60-60z" fill="#ffdeb8"/>
  <path d="m850.23 477.41v-97.402s-167.1-10.078-250.23-91.527c-82.289 81.449-250.23 91.527-250.23 91.527v97.402s-13.434 307.32 250.23 434.12c263.66-126.79 250.23-434.12 250.23-434.12zm-113.36 59.621-143.59 176.33c-10.078 11.754-24.352 18.473-39.465 18.473h-5.8789c-17.633-2.5195-31.906-12.594-39.465-28.551l-50.383-105.8c-10.078-20.992-0.83984-46.184 20.152-56.258 20.992-10.078 46.184-0.83984 56.258 20.152l27.711 58.777 110.84-136.03c14.273-17.633 41.145-20.992 58.777-5.8789 16.793 14.277 20.152 40.305 5.0391 58.781z"/>
 </g>
</svg>
