<?xml version="1.0" encoding="UTF-8"?>
<svg width="1200pt" height="1200pt" version="1.1" viewBox="0 0 1200 1200" xmlns="http://www.w3.org/2000/svg">
 <g>
  <path d="m60 0h1080c33.137 0 60 33.137 60 60v1080c0 33.137-26.863 60-60 60h-1080c-33.137 0-60-33.137-60-60v-1080c0-33.137 26.863-60 60-60z" fill="#ffdeb8"/>
  <path d="m418.52 706.08c52.469 93.922 145.97 148.87 181.51 167.23 35.344-18.188 128.73-73 181.4-167.23 45.691-81.926 58.633-218.25 62.066-270.3l-243.46-109.07-243.55 109.07c3.4023 52.051 16.316 188.37 62.035 270.3z"/>
 </g>
</svg>
