<svg xmlns="http://www.w3.org/2000/svg" data-name="Layer 1" viewBox="0 0 100 100" x="0px" y="0px"><title>All3</title><path d="M91.06,19.11a1.36,1.36,0,0,0-1-1.48Q70.47,9,50.9.22a2.12,2.12,0,0,0-1.9,0Q29.49,8.92,9.95,17.57a1.52,1.52,0,0,0-1,1.66q0,7.21,0,14.42V45.19a57.47,57.47,0,0,0,12.5,36A52.12,52.12,0,0,0,48.11,99.7a6.23,6.23,0,0,0,3.82,0c11.51-3.46,20.58-10.31,27.68-19.87A57.3,57.3,0,0,0,90.3,54.54,59,59,0,0,0,91,45.83C91.1,36.93,91,28,91.06,19.11Zm-6.92,27.4a48.62,48.62,0,0,1-.59,7.23,47.62,47.62,0,0,1-8.88,21,43.87,43.87,0,0,1-23,16.5,5.2,5.2,0,0,1-3.17,0A43.36,43.36,0,0,1,26.38,75.88,47.61,47.61,0,0,1,15.89,46V36.4c0-4,0-8,0-11.95H16a1.25,1.25,0,0,1,.86-1.38Q33.05,15.89,49.25,8.65a1.74,1.74,0,0,1,1.57,0Q67.07,15.9,83.33,23.1a1.13,1.13,0,0,1,.81,1.23V46.51Z"></path></svg>