<?xml version="1.0" encoding="UTF-8"?>
<svg width="1200pt" height="1200pt" version="1.1" viewBox="0 0 1200 1200" xmlns="http://www.w3.org/2000/svg">
 <defs>
  <clipPath id="a">
   <path d="m289 222.14h622v755.71h-622z"/>
  </clipPath>
 </defs>
 <path d="m60 0h1080c33.137 0 60 33.137 60 60v1080c0 33.137-26.863 60-60 60h-1080c-33.137 0-60-33.137-60-60v-1080c0-33.137 26.863-60 60-60z" fill="#ffdeb8"/>
 <g clip-path="url(#a)">
  <path d="m910.3 366.56c0.625-5.0938-2.5977-9.8672-7.5547-11.184-98.699-43.48-197.34-87.336-295.94-131.57-4.5195-2.2656-9.8438-2.2656-14.359 0-98.293 43.828-196.66 87.535-295.11 131.11-5.207 1.8281-8.3789 7.0938-7.5586 12.547v108.97 87.211c-0.37109 98.789 32.949 194.75 94.465 272.05 50.559 66.883 121.14 115.89 201.47 139.88 9.3867 3.0234 19.484 3.0234 28.867 0 86.984-26.148 155.53-77.914 209.18-150.16 42.02-56.215 69.742-121.8 80.785-191.12 3.3867-21.781 5.1562-43.781 5.2891-65.824 0.75781-67.258 0-134.74 0.45312-201.93zm-52.297 207.07h0.003906c-0.125 18.297-1.6172 36.559-4.4609 54.637-9.1875 57.555-32.215 112.02-67.105 158.7-42.57 59.629-103.69 103.48-173.82 124.7-7.7891 2.4922-16.164 2.4922-23.957 0-66.629-19.973-125.17-60.625-167.16-116.08-51.418-64.02-79.391-143.7-79.277-225.81v-72.551-90.309l0.83203 0.003907c-0.69922-4.6055 2.0586-9.0312 6.5-10.43 81.566-36.176 163.16-72.5 244.77-108.97 3.7305-1.8867 8.1367-1.8867 11.867 0 81.867 36.523 163.76 72.926 245.68 109.2 4.0547 1.1602 6.6562 5.1094 6.1211 9.2969v167.62z"/>
 </g>
</svg>
