<?xml version="1.0" encoding="UTF-8"?>
<svg width="1200pt" height="1200pt" version="1.1" viewBox="0 0 1200 1200" xmlns="http://www.w3.org/2000/svg">
 <defs>
  <clipPath id="a">
   <path d="m289 222.14h622v755.71h-622z"/>
  </clipPath>
 </defs>
 <path d="m60 0h1080c33.137 0 60 33.137 60 60v1080c0 33.137-26.863 60-60 60h-1080c-33.137 0-60-33.137-60-60v-1080c0-33.137 26.863-60 60-60z" fill="#ffdeb8"/>
 <g clip-path="url(#a)">
  <path d="m910.3 366.56c0.625-5.0938-2.5977-9.8672-7.5547-11.184-98.699-43.48-197.34-87.312-295.94-131.5-4.5156-2.2891-9.8477-2.2891-14.359 0-98.293 43.832-196.66 87.512-295.11 131.04-5.2266 1.8008-8.4102 7.0859-7.5586 12.547v196.48c-0.41797 98.801 32.906 194.78 94.465 272.06 50.578 66.727 121.09 115.62 201.32 139.58 9.3906 2.9883 19.48 2.9883 28.871 0 86.984-26.148 155.53-77.914 209.18-150.16h-0.003906c41.996-56.199 69.723-121.76 80.785-191.04 3.4609-21.773 5.2812-43.777 5.4414-65.824 0.75781-67.41 0-134.82 0.45312-202zm-309.84 238.05m271.61-32.27c-0.10547 19.387-1.6719 38.734-4.6836 57.887-9.7305 60.734-34.055 118.2-70.887 167.46-44.945 62.945-109.46 109.23-183.49 131.65-3.9922 1.2266-8.1406 1.8906-12.316 1.9648v-662.46c1.957 0.082032 3.8828 0.54297 5.668 1.3594 86.453 38.492 172.91 76.934 259.36 115.32 4.3086 1.2031 7.0781 5.3867 6.5 9.8242-0.10156 58.945-0.15234 117.94-0.15234 176.99z"/>
 </g>
</svg>
