<svg xmlns="http://www.w3.org/2000/svg" data-name="Layer 1" viewBox="0 0 100 100" x="0px" y="0px"><title>All3</title><path d="M91.06,19.11a1.36,1.36,0,0,0-1-1.48Q70.47,9,50.9.23a2.1,2.1,0,0,0-1.9,0Q29.49,8.93,9.95,17.57a1.51,1.51,0,0,0-1,1.66v26a57.39,57.39,0,0,0,12.5,36A52.16,52.16,0,0,0,48.09,99.7a6.3,6.3,0,0,0,3.82,0c11.51-3.46,20.58-10.31,27.68-19.87A57.34,57.34,0,0,0,90.28,54.55,58.25,58.25,0,0,0,91,45.84C91.1,36.92,91,28,91.06,19.11Zm-41,31.5h0ZM86,46.34A51.08,51.08,0,0,1,85.38,54,50.29,50.29,0,0,1,76,76.16,46.33,46.33,0,0,1,51.72,93.58a5.89,5.89,0,0,1-1.63.26V6.18a2,2,0,0,1,.75.18Q68,14,85.16,21.62a1.19,1.19,0,0,1,.86,1.3Q86,34.62,86,46.34Z"></path></svg>