<svg xmlns="http://www.w3.org/2000/svg" xmlns:xlink="http://www.w3.org/1999/xlink" version="1.1" x="0px" y="0px" viewBox="0 0 100 100" style="enable-background:new 0 0 100 100;" xml:space="preserve"><path d="M88.2,15.1c-13.1-0.5-25.8-2.8-37.7-6.7c-0.3-0.1-0.6-0.1-0.9,0c-12,3.9-24.7,6.2-37.7,6.7c-0.8,0-1.5,0.7-1.4,1.5  c0.8,41.5,15.2,68.8,39.3,74.9c0.1,0,0.2,0,0.4,0c0.1,0,0.2,0,0.4,0c24.1-6.2,38.4-33.5,39.3-74.9C89.7,15.8,89,15.2,88.2,15.1z   M61.6,62L50,53.6L38.4,62l4.4-13.7l-11.6-8.5h14.4L50,26.2l4.4,13.7h14.4l-11.6,8.5L61.6,62z"></path></svg>