<?xml version="1.0" encoding="UTF-8"?>
<svg width="1200pt" height="1200pt" version="1.1" viewBox="0 0 1200 1200" xmlns="http://www.w3.org/2000/svg">
 <g>
  <path d="m60 0h1080c33.137 0 60 33.137 60 60v1080c0 33.137-26.863 60-60 60h-1080c-33.137 0-60-33.137-60-60v-1080c0-33.137 26.863-60 60-60z" fill="#ffdeb8"/>
  <path d="m600 259.93c-137.23 83.332-283.39 112.01-283.39 112.01 0 456.12 283.39 568.13 283.39 568.13s283.39-112.01 283.39-568.13c0 0-155.07-25.98-283.39-112.01zm64.836 342.02c-2.5781 2.5078-4.1875 7.457-3.5742 11.004l11.984 69.875c0.60547 3.5508-1.4961 5.0703-4.6797 3.4102l-62.777-32.996c-3.1953-1.6758-8.4023-1.6758-11.578 0l-62.793 32.996c-3.1758 1.6641-5.2812 0.14453-4.6797-3.4102l11.992-69.875c0.60547-3.543-1.0039-8.4961-3.582-11.004l-50.785-49.492c-2.5938-2.5078-1.7773-4.9805 1.7773-5.5l70.191-10.195c3.5664-0.51562 7.7695-3.5664 9.3711-6.793l31.379-63.578c1.5938-3.2188 4.1953-3.2188 5.7891 0l31.391 63.578c1.5938 3.2266 5.8125 6.2812 9.3633 6.793l70.191 10.195c3.5664 0.51953 4.3594 2.9922 1.7852 5.5z"/>
 </g>
</svg>
