<svg xmlns="http://www.w3.org/2000/svg" viewBox="0 0 48 48" x="0px" y="0px"><title>leaf, nature, green</title><path d="M24,4C22.25,4,8,16.56,8,28a16,16,0,0,0,32,0C40,16.56,25.75,4,24,4Zm1,38V35.5l3.6-2.7a1,1,0,1,0-1.2-1.6L25,33V29.5l3.6-2.7a1,1,0,1,0-1.2-1.6L25,27V23.5l3.6-2.7a1,1,0,1,0-1.2-1.6L25,21V17a1,1,0,0,0-2,0v4l-2.4-1.8a1,1,0,1,0-1.2,1.6L23,23.5V27l-2.4-1.8a1,1,0,1,0-1.2,1.6L23,29.5V33l-2.4-1.8a1,1,0,1,0-1.2,1.6L23,35.5V42A14,14,0,0,1,10,28C10,18.17,21.76,7.54,24,6.1,26.24,7.54,38,18.17,38,28A14,14,0,0,1,25,42Z"></path></svg>