<svg xmlns="http://www.w3.org/2000/svg" xmlnsXlink="http://www.w3.org/1999/xlink" xmlnsSerif="http://www.serif.com/" viewBox="0 0 134 134" version="1.1" xmlSpace="preserve" style="" x="0px" y="0px" fill-rule="evenodd" clip-rule="evenodd" stroke-linejoin="round" stroke-miterlimit="2"><rect x="0" y="0" width="133.333" height="133.333" style="" fill="none"></rect><path d="M47.897,52.646l-3.136,-1.572c-1.028,-0.515 -2.281,-0.099 -2.796,0.929c-0.515,1.028 -0.099,2.281 0.929,2.796l3.095,1.551l-4.817,9.352l-2.488,-1.247c-1.028,-0.515 -2.281,-0.099 -2.796,0.929c-0.515,1.028 -0.099,2.281 0.929,2.796l2.447,1.226l-3.095,6.01c-2.744,0.871 -11.63,3.789 -18.604,7.214c-3.847,1.888 -7.112,3.98 -8.705,5.934c-1.692,2.074 -2.489,5.525 -2.596,9.39c-0.053,1.946 0.052,4.001 0.243,5.995c0.002,0.112 0.013,0.221 0.032,0.327c0.615,6.11 1.997,11.581 1.997,11.581c0.234,0.924 1.066,1.571 2.019,1.571l56.927,-0c0.573,-0 1.121,-0.236 1.514,-0.652l57.518,-60.83c0.771,-0.815 0.757,-2.094 -0.03,-2.893l-35.979,-36.526l-0.322,0.769c0.096,-0.763 -0.151,-1.387 -1.207,-1.391c-0.369,-0.001 -2.318,0.028 -4.364,0.766c-1.664,0.6 -3.363,1.659 -4.485,3.413c-1.148,1.796 -1.762,4.378 -0.815,8.124c1.316,5.209 -0.488,9.971 -3.383,13.081c-1.845,1.983 -4.127,3.313 -6.33,3.55c-5.91,0.636 -12.466,-4.697 -12.466,-4.697c-0.488,-0.387 -1.124,-0.535 -1.733,-0.404c-0.609,0.131 -1.128,0.529 -1.413,1.083l-6.09,11.825Zm68.755,-3.637l-53.376,56.219c-0.393,0.413 -0.937,0.648 -1.507,0.649l-50.842,0.109c0.394,3.007 0.93,5.675 1.282,7.275l54.376,0c0,0 55.52,-58.716 55.52,-58.716c-0,-0 -2.188,-2.222 -5.453,-5.536Zm-2.926,-2.97c-10.043,-10.196 -25.537,-25.925 -25.539,-25.925c-0.564,0.056 -1.351,0.184 -2.162,0.476c-0.872,0.315 -1.8,0.82 -2.388,1.739c-0.684,1.07 -0.85,2.625 -0.286,4.858c2.871,11.358 -5.769,20.983 -13.306,21.794c-5.056,0.545 -10.536,-2.333 -13.433,-4.158l-4.99,9.69l5.293,2.653c1.028,0.515 1.444,1.768 0.929,2.796c-0.515,1.028 -1.768,1.444 -2.796,0.929l-5.334,-2.674l-4.817,9.352l5.941,2.978c1.028,0.515 1.444,1.768 0.929,2.796c-0.515,1.028 -1.768,1.444 -2.796,0.929l-5.981,-2.998l-3.516,6.825c-0.257,0.5 -0.707,0.875 -1.246,1.039c0,0 -10.741,3.261 -18.826,7.232c-3.2,1.571 -5.988,3.202 -7.313,4.827c-0.597,0.732 -0.965,1.744 -1.223,2.903c-0.468,2.103 -0.523,4.647 -0.384,7.208c0.009,0.171 0.019,0.342 0.03,0.512l50.356,-0.108l52.858,-55.673Z"></path></svg>