<svg xmlnsInkscape="http://www.inkscape.org/namespaces/inkscape" xmlnsSodipodi="http://sodipodi.sourceforge.net/DTD/sodipodi-0.dtd" xmlns="http://www.w3.org/2000/svg" xmlnsSvg="http://www.w3.org/2000/svg" xmlnsRdf="http://www.w3.org/1999/02/22-rdf-syntax-ns#" xmlnsCc="http://creativecommons.org/ns#" xmlnsDc="http://purl.org/dc/elements/1.1/" viewBox="0 0 16.933333 16.933334" version="1.1" x="0px" y="0px"><g><path style="color:#000000;" d="m 3.8749579,4.6454517 c -1.1025716,-3e-6 -2.0081478,0.886732 -2.0081478,1.978691 0,0.689735 0.3614261,1.297409 0.9053724,1.651577 -1.1541389,0.436277 -1.97559078,1.537412 -1.97559078,2.8308363 v 0.917773 A 0.26460995,0.26460995 0 0 0 1.0622096,12.28788 h 4.5940344 5.622912 4.593518 a 0.26460995,0.26460995 0 0 0 0.264068,-0.263551 v -0.917773 c 0,-1.2934243 -0.820434,-2.3945593 -1.974041,-2.8308363 0.54337,-0.354168 0.903822,-0.961842 0.903822,-1.651577 0,-1.091959 -0.90351,-1.978694 -2.006079,-1.978691 -1.102561,2e-6 -2.006081,0.886738 -2.006081,1.978691 0,0.689224 0.360087,1.29626 0.902787,1.650545 -0.462586,0.174154 -0.871492,0.455205 -1.195273,0.812869 -0.323609,-0.356928 -0.731774,-0.63741 -1.1932102,-0.811837 0.5433692,-0.354168 0.9038192,-0.961842 0.9038192,-1.651577 0,-1.091959 -0.903507,-1.978694 -2.0060786,-1.978691 -1.1025584,2e-6 -2.0055602,0.886738 -2.0055602,1.978691 0,0.689732 0.3604498,1.297406 0.9038193,1.651577 -0.461436,0.174427 -0.8696007,0.454909 -1.1932073,0.811837 -0.3235775,-0.357664 -0.731602,-0.638715 -1.1937259,-0.812869 0.5428218,-0.354263 0.9027874,-0.961228 0.9027874,-1.650545 0,-1.091953 -0.9030044,-1.978689 -2.0055628,-1.978691 z m 0,0.529166 c 0.8210788,0 1.4763962,0.648129 1.4763962,1.449525 0,0.801394 -0.6553174,1.449004 -1.4763962,1.449007 -0.8210894,3e-6 -1.4784625,-0.647607 -1.4784625,-1.449007 0,-0.801399 0.6573731,-1.449527 1.4784625,-1.449525 z m 4.5914495,0 c 0.821092,-2e-6 1.4769147,0.648126 1.4769121,1.449525 0,0.8014 -0.6558201,1.44901 -1.4769121,1.449007 -0.8210788,-3e-6 -1.4763935,-0.647613 -1.4763935,-1.449007 0,-0.801396 0.6553147,-1.449525 1.4763935,-1.449525 z m 4.5940366,0 c 0.82109,-2e-6 1.476394,0.648126 1.476394,1.449525 0,0.8014 -0.655304,1.44901 -1.476394,1.449007 -0.821081,-3e-6 -1.476396,-0.647613 -1.476396,-1.449007 0,-0.801396 0.655315,-1.449525 1.476396,-1.449525 z m -9.1854861,3.429765 c 0.7987744,0 1.5048336,0.356322 1.9704209,0.913641 -0.2885361,0.461526 -0.4547526,1.0056683 -0.4547526,1.5885323 v 0.652158 H 1.326277 v -0.652158 c 0,-1.3886183 1.13089,-2.5021733 2.5486809,-2.5021733 z m 4.5914495,0 c 1.4177909,0 2.5471336,1.113557 2.5471336,2.5021733 v 0.652158 H 5.9197928 v -0.652158 c 0,-0.531633 0.1657535,-1.02288 0.4495853,-1.4267873 a 0.26458349,0.26458349 0 0 0 0.02894,-0.04082 C 6.858791,9.0108807 7.6097447,8.6043857 8.4664073,8.6043857 Z m 4.5940366,0 c 1.417789,0 2.546615,1.113557 2.546615,2.5021733 v 0.652158 h -4.064352 v -0.652158 c 0,-0.582454 -0.166073,-1.1261843 -0.454236,-1.5875003 0.465584,-0.558028 1.172606,-0.914673 1.971973,-0.914673 z" fill="#000000" stroke-width="1" stroke-linecap="round" stroke-linejoin="round"></path></g></svg>