<svg xmlns="http://www.w3.org/2000/svg" xmlnsXlink="http://www.w3.org/1999/xlink" version="1.1" x="0px" y="0px" viewBox="0 0 1200 1200" style="enable-background:new 0 0 1200 1200;" xmlSpace="preserve"><g><path d="M1030.8,609.6c-1.7-3.3-4.7-5.7-8.3-6.7c-2.4-0.6-54.8-14.5-122.7-11.5c3.6-12.7,6.3-24.7,8.4-35.6   c9.5-48.9,8.4-84.9,8.3-86.5c-0.1-3.7-1.8-7.2-4.6-9.6c-2.8-2.4-6.5-3.5-10.2-3c-1.3,0.2-32,4.4-73.5,18.9   c-56.1,19.6-95.8,45.3-122.3,67.1c-8.2-48.5-26.9-91-43.3-121.1c-23.9-43.7-47.7-70.8-48.7-71.9c-2.5-2.8-6-4.4-9.7-4.4   c0,0-0.1,0-0.1,0c-3.7,0-7.1,1.5-9.6,4.2c-1,1.1-25.4,27.7-50.2,70.9c-27.6,48.1-40.9,91.3-46.9,126.2   c-41.8-36-89.5-57.7-124.1-70.1c-43-15.3-75-19.7-76.4-19.9c-3.7-0.5-7.4,0.6-10.2,3c-2.8,2.4-4.5,5.9-4.6,9.6   c-0.1,1.5-1.1,37.6,8.3,86.5c2.1,10.8,4.9,22.8,8.4,35.5c-67.4-2.8-119.2,10.9-121.6,11.5c-3.6,1-6.6,3.4-8.3,6.7   c-1.7,3.3-1.9,7.1-0.6,10.6c0.5,1.4,13.5,35.1,41.1,76.5c25.6,38.4,69.2,90.8,131.6,122.7c55.2,28.2,114.8,35,159.7,35   c5.9,0,11.5-0.1,16.8-0.3c40.7-1.5,71.4-8,82.1-10.5c10.6,2.5,41.4,9,82.1,10.5c5.3,0.2,11,0.3,16.8,0.3c44.9,0,104.6-6.9,159.7-35   c62.4-31.9,106-84.3,131.6-122.7c27.6-41.4,40.6-75.1,41.1-76.5C1032.7,616.8,1032.5,612.9,1030.8,609.6z M890.3,485.6   c-0.6,14.5-2.4,38.2-7.8,65.9c-14.9,76.2-45.2,124.4-68.1,151.5c-41.4,49-97.9,77.3-138,92.5c-16.5,6.2-31.6,10.8-44.1,14.1   c8.1-11.1,17.4-25.2,26.9-41.6c41.6-72.5,50.8-133.9,51.2-172.5v0c0.1-7-0.1-14-0.6-20.9C772.7,515.5,856.5,492.8,890.3,485.6z    M519.4,593.4c0.7-64.2,26.1-122,47.4-159.2c14-24.6,28.1-43.7,37.2-55c8.8,11.5,22.5,30.9,36.1,55.8c20.5,37.6,44.7,96,44.1,160.1   c-0.7,64.2-26.1,122-47.4,159.2c-14,24.6-28.1,43.7-37.2,55C576.3,778.7,518.4,692.7,519.4,593.4z M493.8,579   c-0.3,5-0.5,9.8-0.5,14.2c-0.7,70.1,25.5,133,47.6,173.5c9.3,17.1,18.6,31.6,26.6,43.1c-45.6-11.9-127.7-41.3-183-106.7   c-41.4-49-59.9-109.4-68.1-151.5c-5.4-27.8-7.2-51.4-7.8-65.9C343.2,493,430.4,516.7,493.8,579z M516.3,828   c-77.6,2.8-131.4-15.8-163-31.9c-57.1-29.2-97.6-77.7-121.4-113.3c-15.7-23.5-26.6-44.6-32.7-57.8c20.9-4,61.5-9.9,108.3-6.8   c12,33.6,30,69.8,57,101.8c45.2,53.5,106.2,84.1,149.4,100.3c6.7,2.5,13.1,4.8,19.3,6.8C527.8,827.5,522.1,827.8,516.3,828z    M968.1,682.8c-43.2,64.5-89.9,97.2-121.4,113.3c-57.1,29.2-120.2,33.5-163,31.9c-6.2-0.2-12.2-0.6-17.9-1c6.1-2,12.5-4.2,19.1-6.7   c43.2-16.2,104.2-46.8,149.4-100.3c27-32,45-68.2,57-101.8c47.3-3.2,88.4,2.7,109.4,6.8C994.7,638.1,983.9,659.2,968.1,682.8z"></path><ellipse transform="matrix(0.3827 -0.9239 0.9239 0.3827 -118.1036 883.1228)" cx="601.8" cy="529.9" rx="20" ry="20"></ellipse><ellipse transform="matrix(0.9732 -0.2298 0.2298 0.9732 -122.7046 154.4245)" cx="601.8" cy="604.1" rx="20" ry="20"></ellipse><ellipse transform="matrix(0.9732 -0.2298 0.2298 0.9732 -139.7528 156.4095)" cx="601.8" cy="678.3" rx="20" ry="20"></ellipse></g></svg>